# xmcd
#
# Track frame offsets: 
#        150
#        19237
#        40998
#        58426
#        82283
#        107081
#        128157
#        155165
#        169412
#        190891
#        208004
#        229725
#        255113
#        284059
#
# Disc length: 4000 seconds
#
# Revision: 0
# Processed by: cddbd v1.5.2PL0 Copyright (c) Steve Scherf et al.
# Submitted via: ExactAudioCopy v1.0b4
#
DISCID=d50f9e0e
DTITLE=Lightnin Malcolm - Rough Out There
DYEAR=2013
DGENRE=Blues
TTITLE0=Workin'
TTITLE1=My Lifes A Wreck
TTITLE2=Dellareecsa
TTITLE3=Reality Check
TTITLE4=So Much Trouble
TTITLE5=Rough Out There
TTITLE6=Took Too Long
TTITLE7=Givin You Away
TTITLE8=Money
TTITLE9=Chiefs
TTITLE10=Young Woman, Old Fashioned Ways
TTITLE11=Mama
TTITLE12=Stomp Yo Feet, Clap Yo Hands
TTITLE13=How Blessed Are You
EXTD=
EXTT0=
EXTT1=
EXTT2=
EXTT3=
EXTT4=
EXTT5=
EXTT6=
EXTT7=
EXTT8=
EXTT9=
EXTT10=
EXTT11=
EXTT12=
EXTT13=
PLAYORDER=
